<svg width="26" height="26" viewBox="0 0 26 26" fill="none" xmlns="http://www.w3.org/2000/svg">
<path d="M15.5 10C15.224 10 15 10.224 15 10.5C15 10.776 15.224 11 15.5 11C15.776 11 16 10.776 16 10.5C16 10.224 15.776 10 15.5 10Z" fill="#1097D7"/>
<path fill-rule="evenodd" clip-rule="evenodd" d="M18.6266 15.7543L25.4049 22.5326C25.7886 22.916 26 23.4261 26 23.9688C26 24.5114 25.7886 25.0215 25.4047 25.405C25.0211 25.7886 24.5111 26 23.9688 26C23.4264 26 22.9164 25.7886 22.5326 25.4049L17.6287 20.5011L17.6279 20.5002L15.7543 18.6267C14.0911 19.7308 12.165 20.3125 10.1562 20.3125C4.55609 20.3125 0 15.7564 0 10.1562C0 4.55609 4.55609 0 10.1562 0C15.7564 0 20.3125 4.55609 20.3125 10.1562C20.3125 12.1649 19.7309 14.091 18.6266 15.7543ZM15.5154 17.5566L15.5155 17.5564C16.3002 16.9869 16.9869 16.3002 17.5565 15.5154C18.6951 13.9479 19.2969 12.0948 19.2969 10.1562C19.2969 5.11611 15.1964 1.01562 10.1562 1.01562C5.11611 1.01562 1.01562 5.11611 1.01562 10.1562C1.01562 15.1964 5.11611 19.2969 10.1562 19.2969C12.0948 19.2969 13.9479 18.6951 15.5154 17.5566ZM16.5809 18.0168C17.1065 17.5869 17.5869 17.1064 18.0168 16.5809L19.4575 18.0216C19.0194 18.5387 18.5387 19.0195 18.0216 19.4575L16.5809 18.0168ZM23.9688 24.9844C24.2398 24.9844 24.4948 24.8787 24.6867 24.6867C24.8787 24.4949 24.9844 24.24 24.9844 23.9688C24.9844 23.6975 24.8787 23.4426 24.6868 23.251L20.1776 18.7417C19.7363 19.2559 19.2559 19.7363 18.7416 20.1776L23.2508 24.6867C23.4427 24.8787 23.6977 24.9844 23.9688 24.9844Z" fill="#1097D7"/>
<path fill-rule="evenodd" clip-rule="evenodd" d="M2 10C2 5.58875 5.58875 2 10 2C14.4113 2 18 5.58875 18 10C18 14.4113 14.4113 18 10 18C5.58875 18 2 14.4113 2 10ZM3 10C3 13.8598 6.1402 17 10 17C13.8598 17 17 13.8598 17 10C17 6.1402 13.8598 3 10 3C6.1402 3 3 6.1402 3 10Z" fill="#1097D7"/>
<path d="M15.9673 7.40042C15.5464 6.41161 14.8134 5.5662 13.8476 4.95563C12.8588 4.33045 11.6974 4 10.4889 4C10.2189 4 10 4.19757 10 4.44119C10 4.68482 10.2189 4.88239 10.4889 4.88239C12.4981 4.88239 14.3329 6.02146 15.0547 7.71693C15.1294 7.89235 15.3146 8 15.5111 8C15.5694 8 15.6287 7.99051 15.6863 7.97053C15.9384 7.88313 16.0642 7.6279 15.9673 7.40042Z" fill="#1097D7"/>
</svg>
